# xmcd
#
# Track frame offsets: 
#        150
#        14272
#        34167
#        47760
#        64622
#        77822
#        90775
#        101322
#        115307
#        128552
#        140292
#        157332
#        169705
#        184420
#
# Disc length: 2705 seconds
#
# Revision: 4
# Processed by: cddbd v1.5.2PL0 Copyright (c) Steve Scherf et al.
# Submitted via: ExactAudioCopyFreeDBPlugin 1.0
#
DISCID=ae0a8f0e
DTITLE=Various Artist -  Country Greats  - Golden Country Classics (C
DTITLE=D 1)
DYEAR=1900
DGENRE=Country
TTITLE0=John Denver - Annie's Song
TTITLE1=The Bellamy Brothers - If I said you had a beautifull body
TTITLE2=Tammy Wynette - Stand by your man
TTITLE3=Shania Twain - Send it with love
TTITLE4=Charlie Rich - The most beautifull girl
TTITLE5=Kenny Rogers - Rudy, Don't take your love to town
TTITLE6=Timi Yuro - Hurt
TTITLE7=Tom Jones - Green green grass of home
TTITLE8=Dolly Parton - I will always love you
TTITLE9=Jim Reeves - Welcome to my world
TTITLE10=Lynn Anderson - Blue Bayou
TTITLE11=Freddy Fender - Wasted days and wasted nights
TTITLE12=Glenn Campbell - Rhinestone cowboy
TTITLE13=Juice Newton - Angel of the morning
EXTD=
EXTT0=
EXTT1=
EXTT2=
EXTT3=
EXTT4=
EXTT5=
EXTT6=
EXTT7=
EXTT8=
EXTT9=
EXTT10=
EXTT11=
EXTT12=
EXTT13=
PLAYORDER=
